<mxfile host="app.diagrams.net" agent="Mozilla/5.0 (Windows NT 10.0; Win64; x64) AppleWebKit/537.36 (KHTML, like Gecko) Chrome/123.0.0.0 Safari/537.36" border="50" scale="3" compressed="false" locked="false" version="24.7.6">
  <diagram name="Blank" id="YmL12bMKpDGza6XwsDPr">
    <mxGraphModel dx="1050" dy="565" grid="0" gridSize="10" guides="1" tooltips="1" connect="1" arrows="1" fold="1" page="0" pageScale="1" pageWidth="827" pageHeight="1169" background="none" math="1" shadow="0">
      <root>
        <mxCell id="X5NqExCQtvZxIxQ7pmgY-0" />
        <mxCell id="1" parent="X5NqExCQtvZxIxQ7pmgY-0" />
        <mxCell id="Gr0Zq-AI6Quabplr0KPa-179" value="" style="swimlane;html=1;startSize=20;horizontal=1;containerType=tree;labelBackgroundColor=none;strokeColor=#D4E1F5;strokeWidth=1;fillColor=none;fontFamily=Comic Sans MS;fontSize=14;swimlaneLine=0;dashed=1;collapsible=0;whiteSpace=wrap;labelBorderColor=none;" parent="1" vertex="1">
          <mxGeometry x="84" y="38" width="700.6500000000001" height="483" as="geometry" />
        </mxCell>
        <mxCell id="Gr0Zq-AI6Quabplr0KPa-180" value="&lt;span style=&quot;font-size: 17px;&quot;&gt;&lt;b&gt;凡事彻底深化&lt;/b&gt;&lt;/span&gt;" style="ellipse;whiteSpace=wrap;html=1;align=center;container=1;recursiveResize=0;treeFolding=1;strokeWidth=2;fontFamily=Comic Sans MS;labelBackgroundColor=#CCFFE6;fontSize=12;fillStyle=solid;fillColor=none;" parent="Gr0Zq-AI6Quabplr0KPa-179" vertex="1">
          <mxGeometry x="270" y="172" width="114" height="83" as="geometry" />
        </mxCell>
        <mxCell id="Gr0Zq-AI6Quabplr0KPa-181" value="" style="whiteSpace=wrap;html=1;rounded=1;arcSize=50;align=center;verticalAlign=middle;container=1;recursiveResize=0;strokeWidth=1;autosize=1;spacing=4;treeFolding=1;" parent="Gr0Zq-AI6Quabplr0KPa-179" vertex="1">
          <mxGeometry x="471" y="158" height="1" as="geometry" />
        </mxCell>
        <mxCell id="Gr0Zq-AI6Quabplr0KPa-182" value="" style="edgeStyle=entityRelationEdgeStyle;startArrow=none;endArrow=none;segment=10;curved=1;strokeWidth=3;strokeColor=#66FF66;rounded=0;fontSize=12;startSize=8;endSize=8;fontColor=#FF6421;" parent="Gr0Zq-AI6Quabplr0KPa-179" edge="1">
          <mxGeometry relative="1" as="geometry">
            <mxPoint x="336" y="171" as="sourcePoint" />
            <mxPoint x="359" y="98" as="targetPoint" />
            <Array as="points">
              <mxPoint x="336" y="168" />
              <mxPoint x="336" y="172" />
              <mxPoint x="333" y="81" />
              <mxPoint x="374" y="88" />
              <mxPoint x="350" y="86" />
              <mxPoint x="365" y="88" />
              <mxPoint x="365" y="89" />
              <mxPoint x="351" y="173" />
              <mxPoint x="328" y="166" />
              <mxPoint x="382" y="135" />
              <mxPoint x="393" y="123" />
            </Array>
          </mxGeometry>
        </mxCell>
        <mxCell id="Gr0Zq-AI6Quabplr0KPa-184" value="" style="whiteSpace=wrap;html=1;rounded=1;arcSize=50;align=center;verticalAlign=middle;container=1;recursiveResize=0;strokeWidth=1;autosize=1;spacing=4;treeFolding=1;collapsible=0;" parent="Gr0Zq-AI6Quabplr0KPa-179" vertex="1" collapsed="1">
          <mxGeometry x="562" y="108" width="5" as="geometry" />
        </mxCell>
        <mxCell id="Gr0Zq-AI6Quabplr0KPa-185" value="" style="edgeStyle=entityRelationEdgeStyle;startArrow=none;endArrow=none;segment=10;curved=1;strokeColor=#660000;rounded=0;fontSize=12;startSize=8;endSize=8;" parent="Gr0Zq-AI6Quabplr0KPa-179" source="Gr0Zq-AI6Quabplr0KPa-181" target="Gr0Zq-AI6Quabplr0KPa-184" edge="1">
          <mxGeometry relative="1" as="geometry">
            <mxPoint x="194" y="91.5" as="sourcePoint" />
            <mxPoint x="256" y="114" as="targetPoint" />
          </mxGeometry>
        </mxCell>
        <mxCell id="Gr0Zq-AI6Quabplr0KPa-186" value="&lt;h4&gt;管理层支持&lt;/h4&gt;" style="text;html=1;resizable=0;points=[];align=center;verticalAlign=middle;labelBackgroundColor=none;fontFamily=Comic Sans MS;rotation=-30;" parent="Gr0Zq-AI6Quabplr0KPa-185" vertex="1">
          <mxGeometry x="0.2571" relative="1" as="geometry">
            <mxPoint x="3" y="11" as="offset" />
          </mxGeometry>
        </mxCell>
        <mxCell id="Gr0Zq-AI6Quabplr0KPa-190" value="" style="whiteSpace=wrap;html=1;rounded=1;arcSize=50;align=center;verticalAlign=middle;container=1;recursiveResize=0;strokeWidth=1;autosize=1;spacing=4;treeFolding=1;collapsible=0;" parent="Gr0Zq-AI6Quabplr0KPa-179" vertex="1">
          <mxGeometry x="567" y="215" height="1" as="geometry" />
        </mxCell>
        <mxCell id="Gr0Zq-AI6Quabplr0KPa-191" value="" style="edgeStyle=entityRelationEdgeStyle;startArrow=none;endArrow=none;segment=10;curved=1;strokeColor=#660000;rounded=0;fontSize=12;startSize=8;endSize=8;" parent="Gr0Zq-AI6Quabplr0KPa-179" edge="1">
          <mxGeometry relative="1" as="geometry">
            <mxPoint x="471" y="159" as="sourcePoint" />
            <mxPoint x="566.9999999999998" y="215.9999999999999" as="targetPoint" />
          </mxGeometry>
        </mxCell>
        <mxCell id="Gr0Zq-AI6Quabplr0KPa-192" value="&lt;h4&gt;表彰与奖励&lt;/h4&gt;" style="text;html=1;resizable=0;points=[];align=center;verticalAlign=middle;labelBackgroundColor=none;fontFamily=Comic Sans MS;rotation=30;" parent="Gr0Zq-AI6Quabplr0KPa-191" vertex="1" connectable="0">
          <mxGeometry x="-0.1124" y="-1" relative="1" as="geometry">
            <mxPoint x="28" y="1" as="offset" />
          </mxGeometry>
        </mxCell>
        <mxCell id="Gr0Zq-AI6Quabplr0KPa-193" value="" style="whiteSpace=wrap;html=1;rounded=1;arcSize=50;align=center;verticalAlign=middle;container=1;recursiveResize=0;strokeWidth=1;autosize=1;spacing=4;treeFolding=1;" parent="Gr0Zq-AI6Quabplr0KPa-179" vertex="1">
          <mxGeometry x="474" y="332" height="1" as="geometry" />
        </mxCell>
        <mxCell id="Gr0Zq-AI6Quabplr0KPa-194" value="" style="edgeStyle=entityRelationEdgeStyle;startArrow=none;endArrow=none;segment=10;curved=1;strokeWidth=3;strokeColor=#000099;rounded=0;fontSize=12;startSize=8;endSize=8;exitX=1;exitY=1;exitDx=0;exitDy=0;" parent="Gr0Zq-AI6Quabplr0KPa-179" source="Gr0Zq-AI6Quabplr0KPa-180" edge="1">
          <mxGeometry relative="1" as="geometry">
            <mxPoint x="161" y="198.5" as="sourcePoint" />
            <mxPoint x="499" y="348" as="targetPoint" />
            <Array as="points">
              <mxPoint x="429" y="305" />
              <mxPoint x="390" y="244" />
              <mxPoint x="388" y="248" />
            </Array>
          </mxGeometry>
        </mxCell>
        <mxCell id="Gr0Zq-AI6Quabplr0KPa-195" value="&lt;h3&gt;&lt;b&gt;建立反馈机制&lt;/b&gt;&lt;/h3&gt;" style="text;html=1;resizable=0;points=[];align=center;verticalAlign=middle;labelBackgroundColor=none;rotation=45;fontFamily=Comic Sans MS;" parent="Gr0Zq-AI6Quabplr0KPa-194" vertex="1" connectable="0">
          <mxGeometry x="0.0245" y="2" relative="1" as="geometry">
            <mxPoint x="-35" y="-10" as="offset" />
          </mxGeometry>
        </mxCell>
        <mxCell id="Gr0Zq-AI6Quabplr0KPa-196" value="" style="whiteSpace=wrap;html=1;rounded=1;arcSize=50;align=center;verticalAlign=middle;container=1;recursiveResize=0;strokeWidth=1;autosize=1;spacing=4;treeFolding=1;collapsible=0;" parent="Gr0Zq-AI6Quabplr0KPa-179" vertex="1">
          <mxGeometry x="572" y="292" width="5" as="geometry" />
        </mxCell>
        <mxCell id="Gr0Zq-AI6Quabplr0KPa-197" value="" style="edgeStyle=entityRelationEdgeStyle;startArrow=none;endArrow=none;segment=10;curved=1;strokeColor=#000099;rounded=0;fontSize=12;startSize=8;endSize=8;" parent="Gr0Zq-AI6Quabplr0KPa-179" edge="1">
          <mxGeometry relative="1" as="geometry">
            <mxPoint x="495" y="346.78" as="sourcePoint" />
            <mxPoint x="546.94" y="302.78" as="targetPoint" />
            <Array as="points">
              <mxPoint x="487" y="336.78" />
              <mxPoint x="514" y="334.78" />
            </Array>
          </mxGeometry>
        </mxCell>
        <mxCell id="Gr0Zq-AI6Quabplr0KPa-198" value="&lt;h4&gt;及时反馈&lt;/h4&gt;" style="text;html=1;resizable=0;points=[];align=center;verticalAlign=middle;labelBackgroundColor=none;fontFamily=Comic Sans MS;rotation=-35;" parent="Gr0Zq-AI6Quabplr0KPa-197" vertex="1" connectable="0">
          <mxGeometry x="0.2571" relative="1" as="geometry">
            <mxPoint x="-15" y="-3" as="offset" />
          </mxGeometry>
        </mxCell>
        <mxCell id="Gr0Zq-AI6Quabplr0KPa-202" value="" style="whiteSpace=wrap;html=1;rounded=1;arcSize=50;align=center;verticalAlign=middle;container=1;recursiveResize=0;strokeWidth=1;autosize=1;spacing=4;treeFolding=1;collapsible=0;" parent="Gr0Zq-AI6Quabplr0KPa-179" vertex="1">
          <mxGeometry x="594" y="402" height="1" as="geometry" />
        </mxCell>
        <mxCell id="Gr0Zq-AI6Quabplr0KPa-203" value="" style="edgeStyle=entityRelationEdgeStyle;startArrow=none;endArrow=none;segment=10;curved=1;strokeColor=#000099;rounded=0;fontSize=12;startSize=8;endSize=8;" parent="Gr0Zq-AI6Quabplr0KPa-179" edge="1">
          <mxGeometry relative="1" as="geometry">
            <mxPoint x="492.89" y="346.7800000000001" as="sourcePoint" />
            <mxPoint x="515" y="427" as="targetPoint" />
            <Array as="points">
              <mxPoint x="482.89" y="367.78" />
              <mxPoint x="529.89" y="354.78" />
              <mxPoint x="535.89" y="364.78" />
              <mxPoint x="492.89" y="352.78" />
              <mxPoint x="505.89" y="407.78" />
            </Array>
          </mxGeometry>
        </mxCell>
        <mxCell id="Gr0Zq-AI6Quabplr0KPa-204" value="&lt;h4&gt;持续改进&lt;/h4&gt;" style="text;html=1;resizable=0;points=[];align=center;verticalAlign=middle;labelBackgroundColor=none;fontFamily=Comic Sans MS;rotation=75;" parent="Gr0Zq-AI6Quabplr0KPa-203" vertex="1" connectable="0">
          <mxGeometry x="-0.1124" y="-1" relative="1" as="geometry">
            <mxPoint x="-6" y="13" as="offset" />
          </mxGeometry>
        </mxCell>
        <mxCell id="Gr0Zq-AI6Quabplr0KPa-205" value="" style="shape=image;html=1;verticalAlign=top;verticalLabelPosition=bottom;labelBackgroundColor=#ffffff;imageAspect=0;aspect=fixed;image=https://cdn2.iconfinder.com/data/icons/bitsies/128/Lightbulb-128.png;strokeColor=#000000;fillColor=none;fontFamily=Comic Sans MS;rotation=-30;" parent="Gr0Zq-AI6Quabplr0KPa-179" vertex="1">
          <mxGeometry x="532.3199999999999" y="274" width="23" height="23" as="geometry" />
        </mxCell>
        <mxCell id="Gr0Zq-AI6Quabplr0KPa-206" style="edgeStyle=entityRelationEdgeStyle;jumpStyle=arc;html=1;endArrow=classicThin;endFill=1;jettySize=auto;orthogonalLoop=1;strokeColor=none;strokeWidth=2;fontFamily=Comic Sans MS;rounded=0;fontSize=12;startSize=8;endSize=8;curved=1;" parent="Gr0Zq-AI6Quabplr0KPa-179" source="DW1gCvUn582GKB6UZ9Xo-117" target="Gr0Zq-AI6Quabplr0KPa-205" edge="1">
          <mxGeometry relative="1" as="geometry">
            <mxPoint x="594" y="299.82" as="sourcePoint" />
          </mxGeometry>
        </mxCell>
        <mxCell id="Gr0Zq-AI6Quabplr0KPa-209" value="" style="whiteSpace=wrap;html=1;rounded=1;arcSize=50;align=center;verticalAlign=middle;container=1;recursiveResize=0;strokeWidth=1;autosize=1;spacing=4;treeFolding=1;" parent="Gr0Zq-AI6Quabplr0KPa-179" vertex="1">
          <mxGeometry x="193" y="120" height="1" as="geometry" />
        </mxCell>
        <mxCell id="Gr0Zq-AI6Quabplr0KPa-212" value="" style="whiteSpace=wrap;html=1;rounded=1;arcSize=50;align=center;verticalAlign=middle;container=1;recursiveResize=0;strokeWidth=1;autosize=1;spacing=4;treeFolding=1;collapsible=0;" parent="Gr0Zq-AI6Quabplr0KPa-179" vertex="1">
          <mxGeometry x="75" y="171" height="1" as="geometry" />
        </mxCell>
        <mxCell id="Gr0Zq-AI6Quabplr0KPa-213" value="" style="edgeStyle=entityRelationEdgeStyle;startArrow=none;endArrow=none;segment=10;curved=1;strokeColor=#336600;rounded=0;fontSize=12;startSize=8;endSize=8;" parent="Gr0Zq-AI6Quabplr0KPa-179" source="Gr0Zq-AI6Quabplr0KPa-209" target="Gr0Zq-AI6Quabplr0KPa-212" edge="1">
          <mxGeometry relative="1" as="geometry">
            <mxPoint x="-168" y="167.5" as="sourcePoint" />
            <mxPoint x="-168" y="113" as="targetPoint" />
          </mxGeometry>
        </mxCell>
        <mxCell id="Gr0Zq-AI6Quabplr0KPa-214" value="&lt;h4&gt;&lt;font style=&quot;font-size: 11px;&quot;&gt;相关技能培训&lt;/font&gt;&lt;/h4&gt;" style="text;html=1;resizable=0;points=[];align=center;verticalAlign=middle;labelBackgroundColor=none;fontFamily=Comic Sans MS;rotation=-26;fontSize=9;" parent="Gr0Zq-AI6Quabplr0KPa-213" vertex="1" connectable="0">
          <mxGeometry x="-0.1124" y="-1" relative="1" as="geometry">
            <mxPoint x="-11" y="-1" as="offset" />
          </mxGeometry>
        </mxCell>
        <mxCell id="Gr0Zq-AI6Quabplr0KPa-218" value="" style="whiteSpace=wrap;html=1;rounded=1;arcSize=50;align=center;verticalAlign=middle;container=1;recursiveResize=0;strokeWidth=1;autosize=1;spacing=4;treeFolding=1;collapsible=0;" parent="Gr0Zq-AI6Quabplr0KPa-179" vertex="1" collapsed="1">
          <mxGeometry x="89" y="83" width="5" as="geometry" />
        </mxCell>
        <mxCell id="Gr0Zq-AI6Quabplr0KPa-219" value="" style="edgeStyle=entityRelationEdgeStyle;startArrow=none;endArrow=none;segment=10;curved=1;strokeColor=#336600;rounded=0;fontSize=12;startSize=8;endSize=8;" parent="Gr0Zq-AI6Quabplr0KPa-179" source="Gr0Zq-AI6Quabplr0KPa-209" target="Gr0Zq-AI6Quabplr0KPa-218" edge="1">
          <mxGeometry relative="1" as="geometry">
            <mxPoint x="-225" y="100.5" as="sourcePoint" />
            <mxPoint x="-163" y="123" as="targetPoint" />
          </mxGeometry>
        </mxCell>
        <mxCell id="Gr0Zq-AI6Quabplr0KPa-223" style="jumpStyle=arc;html=1;endArrow=classicThin;endFill=1;jettySize=auto;orthogonalLoop=1;strokeColor=none;strokeWidth=2;fontFamily=Comic Sans MS;fontSize=10;rounded=0;startSize=8;endSize=8;curved=1;" parent="Gr0Zq-AI6Quabplr0KPa-179" source="Gr0Zq-AI6Quabplr0KPa-209" edge="1">
          <mxGeometry relative="1" as="geometry">
            <mxPoint x="172.07554645979928" y="102.23865872855208" as="targetPoint" />
          </mxGeometry>
        </mxCell>
        <mxCell id="Gr0Zq-AI6Quabplr0KPa-224" value="" style="whiteSpace=wrap;html=1;rounded=1;arcSize=50;align=center;verticalAlign=middle;container=1;recursiveResize=0;strokeWidth=1;autosize=1;spacing=4;treeFolding=1;" parent="Gr0Zq-AI6Quabplr0KPa-179" vertex="1">
          <mxGeometry x="162" y="253" height="1" as="geometry" />
        </mxCell>
        <mxCell id="Gr0Zq-AI6Quabplr0KPa-225" value="" style="edgeStyle=entityRelationEdgeStyle;startArrow=none;endArrow=none;segment=10;curved=1;strokeWidth=3;strokeColor=#660000;rounded=0;fontSize=12;startSize=8;endSize=8;entryX=0;entryY=1;entryDx=0;entryDy=0;" parent="Gr0Zq-AI6Quabplr0KPa-179" target="Gr0Zq-AI6Quabplr0KPa-180" edge="1">
          <mxGeometry relative="1" as="geometry">
            <mxPoint x="169" y="257" as="sourcePoint" />
            <mxPoint x="395" y="151" as="targetPoint" />
            <Array as="points">
              <mxPoint x="278" y="229.5" />
              <mxPoint x="309" y="194" />
              <mxPoint x="264" y="216" />
              <mxPoint x="268" y="227" />
              <mxPoint x="213" y="258.5" />
              <mxPoint x="150" y="246" />
              <mxPoint x="209" y="258.5" />
              <mxPoint x="211" y="255.5" />
              <mxPoint x="217" y="253.5" />
              <mxPoint x="255" y="233.5" />
            </Array>
          </mxGeometry>
        </mxCell>
        <mxCell id="Gr0Zq-AI6Quabplr0KPa-226" value="&lt;h3&gt;&lt;b&gt;文化建设&lt;/b&gt;&lt;/h3&gt;" style="text;html=1;resizable=0;points=[];align=center;verticalAlign=middle;labelBackgroundColor=none;rotation=-15;fontFamily=Comic Sans MS;" parent="Gr0Zq-AI6Quabplr0KPa-225" vertex="1" connectable="0">
          <mxGeometry x="0.0245" y="2" relative="1" as="geometry">
            <mxPoint x="-25" y="-6" as="offset" />
          </mxGeometry>
        </mxCell>
        <mxCell id="Gr0Zq-AI6Quabplr0KPa-230" value="" style="whiteSpace=wrap;html=1;rounded=1;arcSize=50;align=center;verticalAlign=middle;container=1;recursiveResize=0;strokeWidth=1;autosize=1;spacing=4;treeFolding=1;collapsible=0;" parent="Gr0Zq-AI6Quabplr0KPa-179" vertex="1">
          <mxGeometry x="51" y="258" height="1" as="geometry" />
        </mxCell>
        <mxCell id="Gr0Zq-AI6Quabplr0KPa-231" value="" style="edgeStyle=entityRelationEdgeStyle;startArrow=none;endArrow=none;segment=10;curved=1;strokeColor=#660000;rounded=0;fontSize=12;startSize=8;endSize=8;" parent="Gr0Zq-AI6Quabplr0KPa-179" source="Gr0Zq-AI6Quabplr0KPa-224" edge="1">
          <mxGeometry relative="1" as="geometry">
            <mxPoint x="-395" y="268.5" as="sourcePoint" />
            <mxPoint x="67" y="310" as="targetPoint" />
          </mxGeometry>
        </mxCell>
        <mxCell id="Gr0Zq-AI6Quabplr0KPa-232" value="&lt;h4&gt;团队活动&lt;/h4&gt;" style="text;html=1;resizable=0;points=[];align=center;verticalAlign=middle;labelBackgroundColor=none;fontFamily=Comic Sans MS;rotation=-1;fontSize=12;collapsible=0;" parent="Gr0Zq-AI6Quabplr0KPa-231" vertex="1" connectable="0">
          <mxGeometry x="-0.1124" y="-1" relative="1" as="geometry">
            <mxPoint x="-19" y="-12" as="offset" />
          </mxGeometry>
        </mxCell>
        <mxCell id="Gr0Zq-AI6Quabplr0KPa-233" value="" style="whiteSpace=wrap;html=1;rounded=1;arcSize=50;align=center;verticalAlign=middle;container=1;recursiveResize=0;strokeWidth=1;autosize=1;spacing=4;treeFolding=1;collapsible=0;" parent="Gr0Zq-AI6Quabplr0KPa-179" vertex="1" collapsed="1">
          <mxGeometry x="58" y="216" width="5" as="geometry" />
        </mxCell>
        <mxCell id="Gr0Zq-AI6Quabplr0KPa-234" value="" style="edgeStyle=entityRelationEdgeStyle;startArrow=none;endArrow=none;segment=10;curved=1;strokeColor=#660000;rounded=0;fontSize=12;startSize=8;endSize=8;" parent="Gr0Zq-AI6Quabplr0KPa-179" source="Gr0Zq-AI6Quabplr0KPa-224" target="Gr0Zq-AI6Quabplr0KPa-233" edge="1">
          <mxGeometry relative="1" as="geometry">
            <mxPoint x="-390" y="278.5" as="sourcePoint" />
            <mxPoint x="-328" y="301" as="targetPoint" />
          </mxGeometry>
        </mxCell>
        <mxCell id="Gr0Zq-AI6Quabplr0KPa-235" value="&lt;h4&gt;树立文化&lt;/h4&gt;" style="text;html=1;resizable=0;points=[];align=center;verticalAlign=middle;labelBackgroundColor=none;fontFamily=Comic Sans MS;rotation=20;collapsible=0;" parent="Gr0Zq-AI6Quabplr0KPa-234" vertex="1" connectable="0">
          <mxGeometry x="0.2571" relative="1" as="geometry">
            <mxPoint x="38" y="4" as="offset" />
          </mxGeometry>
        </mxCell>
        <mxCell id="Gr0Zq-AI6Quabplr0KPa-236" value="" style="shape=image;html=1;verticalAlign=top;verticalLabelPosition=bottom;labelBackgroundColor=#ffffff;imageAspect=0;aspect=fixed;image=https://cdn3.iconfinder.com/data/icons/tango-icon-library/48/system-users-128.png;dashed=0;fontFamily=Comic Sans MS;fontSize=12;fontColor=#000000;align=center;strokeColor=#000099;strokeWidth=2;fillColor=#D2D3D3;" parent="Gr0Zq-AI6Quabplr0KPa-179" vertex="1">
          <mxGeometry x="234" y="218" width="39" height="37" as="geometry" />
        </mxCell>
        <mxCell id="Gr0Zq-AI6Quabplr0KPa-238" value="" style="whiteSpace=wrap;html=1;rounded=1;arcSize=50;align=center;verticalAlign=middle;container=1;recursiveResize=0;strokeWidth=1;autosize=1;spacing=4;treeFolding=1;" parent="Gr0Zq-AI6Quabplr0KPa-179" vertex="1">
          <mxGeometry x="257" y="333" height="1" as="geometry" />
        </mxCell>
        <mxCell id="Gr0Zq-AI6Quabplr0KPa-239" value="" style="startArrow=none;endArrow=none;segment=10;strokeWidth=3;strokeColor=#CCCC00;exitX=0.5;exitY=1;curved=1;rounded=0;fontSize=12;startSize=8;endSize=8;" parent="Gr0Zq-AI6Quabplr0KPa-179" source="Gr0Zq-AI6Quabplr0KPa-180" edge="1">
          <mxGeometry relative="1" as="geometry">
            <mxPoint x="53" y="198.50000000000023" as="sourcePoint" />
            <mxPoint x="256" y="336" as="targetPoint" />
            <Array as="points">
              <mxPoint x="333" y="272" />
              <mxPoint x="318" y="289" />
              <mxPoint x="276" y="309" />
            </Array>
          </mxGeometry>
        </mxCell>
        <mxCell id="Gr0Zq-AI6Quabplr0KPa-240" value="&lt;h3&gt;&lt;b&gt;审查和评估&lt;/b&gt;&lt;/h3&gt;" style="text;html=1;resizable=0;points=[];align=center;verticalAlign=middle;labelBackgroundColor=none;rotation=-30;fontFamily=Comic Sans MS;" parent="Gr0Zq-AI6Quabplr0KPa-239" vertex="1" connectable="0">
          <mxGeometry x="0.0245" y="2" relative="1" as="geometry">
            <mxPoint x="-27" y="3" as="offset" />
          </mxGeometry>
        </mxCell>
        <mxCell id="Gr0Zq-AI6Quabplr0KPa-241" value="" style="whiteSpace=wrap;html=1;rounded=1;arcSize=50;align=center;verticalAlign=middle;container=1;recursiveResize=0;strokeWidth=1;autosize=1;spacing=4;treeFolding=1;collapsible=0;" parent="Gr0Zq-AI6Quabplr0KPa-179" vertex="1">
          <mxGeometry x="148" y="375" height="1" as="geometry" />
        </mxCell>
        <mxCell id="Gr0Zq-AI6Quabplr0KPa-242" value="" style="startArrow=none;endArrow=none;segment=10;strokeColor=#CCCC00;curved=1;rounded=0;fontSize=12;startSize=8;endSize=8;" parent="Gr0Zq-AI6Quabplr0KPa-179" source="Gr0Zq-AI6Quabplr0KPa-238" edge="1">
          <mxGeometry relative="1" as="geometry">
            <mxPoint x="-346" y="466.5" as="sourcePoint" />
            <mxPoint x="166" y="369" as="targetPoint" />
            <Array as="points">
              <mxPoint x="222" y="366" />
            </Array>
          </mxGeometry>
        </mxCell>
        <mxCell id="Gr0Zq-AI6Quabplr0KPa-243" value="&lt;h4&gt;绩效评估&lt;/h4&gt;" style="text;html=1;resizable=0;points=[];align=center;verticalAlign=middle;labelBackgroundColor=none;fontFamily=Comic Sans MS;rotation=-15;fontSize=12;collapsible=0;" parent="Gr0Zq-AI6Quabplr0KPa-242" vertex="1" connectable="0">
          <mxGeometry x="-0.1124" y="-1" relative="1" as="geometry">
            <mxPoint x="-15" y="-14" as="offset" />
          </mxGeometry>
        </mxCell>
        <mxCell id="Gr0Zq-AI6Quabplr0KPa-244" value="" style="whiteSpace=wrap;html=1;rounded=1;arcSize=50;align=center;verticalAlign=middle;container=1;recursiveResize=0;strokeWidth=1;autosize=1;spacing=4;treeFolding=1;collapsible=0;" parent="Gr0Zq-AI6Quabplr0KPa-179" vertex="1">
          <mxGeometry x="140" y="307" height="1" as="geometry" />
        </mxCell>
        <mxCell id="Gr0Zq-AI6Quabplr0KPa-245" value="" style="edgeStyle=entityRelationEdgeStyle;startArrow=none;endArrow=none;segment=10;curved=1;strokeColor=#CCCC00;rounded=0;fontSize=12;startSize=8;endSize=8;" parent="Gr0Zq-AI6Quabplr0KPa-179" edge="1">
          <mxGeometry relative="1" as="geometry">
            <mxPoint x="233" y="428" as="sourcePoint" />
            <mxPoint x="261" y="333" as="targetPoint" />
            <Array as="points">
              <mxPoint x="335" y="460" />
              <mxPoint x="282" y="438" />
              <mxPoint x="256" y="376" />
              <mxPoint x="286" y="458" />
              <mxPoint x="325" y="461" />
              <mxPoint x="278" y="462" />
              <mxPoint x="175" y="397" />
              <mxPoint x="178" y="415" />
            </Array>
          </mxGeometry>
        </mxCell>
        <mxCell id="Gr0Zq-AI6Quabplr0KPa-246" value="&lt;h4&gt;审查&lt;/h4&gt;" style="text;html=1;resizable=0;points=[];align=center;verticalAlign=middle;labelBackgroundColor=none;fontFamily=Comic Sans MS;rotation=15;fontSize=12;" parent="Gr0Zq-AI6Quabplr0KPa-245" vertex="1" connectable="0">
          <mxGeometry x="-0.1124" y="-1" relative="1" as="geometry">
            <mxPoint x="15" y="-17" as="offset" />
          </mxGeometry>
        </mxCell>
        <mxCell id="DW1gCvUn582GKB6UZ9Xo-4" value="" style="edgeStyle=entityRelationEdgeStyle;startArrow=none;endArrow=none;segment=10;curved=1;strokeColor=#336600;rounded=0;fontSize=12;startSize=8;endSize=8;" parent="Gr0Zq-AI6Quabplr0KPa-179" source="Gr0Zq-AI6Quabplr0KPa-209" target="DW1gCvUn582GKB6UZ9Xo-6" edge="1">
          <mxGeometry relative="1" as="geometry">
            <mxPoint x="277" y="201" as="sourcePoint" />
            <mxPoint x="5" y="283" as="targetPoint" />
          </mxGeometry>
        </mxCell>
        <mxCell id="DW1gCvUn582GKB6UZ9Xo-5" value="&lt;h4&gt;&lt;font style=&quot;font-size: 11px;&quot;&gt;理念培训&lt;/font&gt;&lt;/h4&gt;" style="text;html=1;resizable=0;points=[];align=center;verticalAlign=middle;labelBackgroundColor=none;fontFamily=Comic Sans MS;rotation=25;" parent="DW1gCvUn582GKB6UZ9Xo-4" vertex="1" connectable="0">
          <mxGeometry x="0.2571" relative="1" as="geometry">
            <mxPoint x="21" y="-2" as="offset" />
          </mxGeometry>
        </mxCell>
        <mxCell id="DW1gCvUn582GKB6UZ9Xo-6" value="" style="whiteSpace=wrap;html=1;rounded=1;arcSize=50;align=center;verticalAlign=middle;container=1;recursiveResize=0;strokeWidth=1;autosize=1;spacing=4;treeFolding=1;collapsible=0;" parent="Gr0Zq-AI6Quabplr0KPa-179" vertex="1" collapsed="1">
          <mxGeometry x="89" y="83" width="5" as="geometry" />
        </mxCell>
        <mxCell id="Gr0Zq-AI6Quabplr0KPa-210" value="" style="edgeStyle=entityRelationEdgeStyle;startArrow=none;endArrow=none;segment=10;curved=1;strokeWidth=3;strokeColor=#336600;rounded=0;fontSize=12;startSize=8;endSize=8;" parent="Gr0Zq-AI6Quabplr0KPa-179" target="Gr0Zq-AI6Quabplr0KPa-180" edge="1">
          <mxGeometry relative="1" as="geometry">
            <mxPoint x="190" y="121" as="sourcePoint" />
            <mxPoint x="54" y="162" as="targetPoint" />
            <Array as="points">
              <mxPoint x="252" y="187" />
              <mxPoint x="190" y="141" />
              <mxPoint x="267" y="162" />
              <mxPoint x="185" y="152" />
              <mxPoint x="267" y="149" />
              <mxPoint x="245" y="174" />
              <mxPoint x="155" y="62.5" />
              <mxPoint x="212" y="124" />
              <mxPoint x="211" y="130" />
              <mxPoint x="213" y="132" />
              <mxPoint x="241" y="141" />
              <mxPoint x="206" y="135" />
              <mxPoint x="199" y="125" />
              <mxPoint x="184" y="121" />
              <mxPoint x="135" y="138.5" />
              <mxPoint x="210" y="83.5" />
              <mxPoint x="208" y="84.5" />
              <mxPoint x="153" y="61.5" />
            </Array>
          </mxGeometry>
        </mxCell>
        <mxCell id="Gr0Zq-AI6Quabplr0KPa-211" value="&lt;h3&gt;&lt;b&gt;教育与培训&lt;/b&gt;&lt;/h3&gt;" style="text;html=1;resizable=0;points=[];align=center;verticalAlign=middle;labelBackgroundColor=none;rotation=45;fontFamily=Comic Sans MS;" parent="Gr0Zq-AI6Quabplr0KPa-210" vertex="1" connectable="0">
          <mxGeometry x="0.0245" y="2" relative="1" as="geometry">
            <mxPoint x="-3" y="-42" as="offset" />
          </mxGeometry>
        </mxCell>
        <mxCell id="DW1gCvUn582GKB6UZ9Xo-17" value="&lt;h3&gt;&lt;b&gt;制定标准与流程&lt;/b&gt;&lt;/h3&gt;" style="text;html=1;resizable=0;points=[];align=center;verticalAlign=middle;labelBackgroundColor=none;rotation=0;fontFamily=Comic Sans MS;" parent="Gr0Zq-AI6Quabplr0KPa-210" vertex="1" connectable="0">
          <mxGeometry x="0.0245" y="2" relative="1" as="geometry">
            <mxPoint x="125" y="-14" as="offset" />
          </mxGeometry>
        </mxCell>
        <mxCell id="DW1gCvUn582GKB6UZ9Xo-24" value="&lt;h3&gt;&lt;b&gt;领导的支持&lt;/b&gt;&lt;/h3&gt;" style="text;html=1;resizable=0;points=[];align=center;verticalAlign=middle;labelBackgroundColor=none;rotation=-20;fontFamily=Comic Sans MS;" parent="Gr0Zq-AI6Quabplr0KPa-210" vertex="1" connectable="0">
          <mxGeometry x="0.0245" y="2" relative="1" as="geometry">
            <mxPoint x="197" y="25" as="offset" />
          </mxGeometry>
        </mxCell>
        <mxCell id="DW1gCvUn582GKB6UZ9Xo-27" value="&lt;h4&gt;标准详细&lt;/h4&gt;" style="text;html=1;resizable=0;points=[];align=center;verticalAlign=middle;labelBackgroundColor=none;rotation=-60;fontFamily=Comic Sans MS;" parent="Gr0Zq-AI6Quabplr0KPa-210" vertex="1" connectable="0">
          <mxGeometry x="0.0245" y="2" relative="1" as="geometry">
            <mxPoint x="130" y="-103" as="offset" />
          </mxGeometry>
        </mxCell>
        <mxCell id="DW1gCvUn582GKB6UZ9Xo-30" value="&lt;h4&gt;检查清单&lt;/h4&gt;" style="text;html=1;resizable=0;points=[];align=center;verticalAlign=middle;labelBackgroundColor=none;rotation=-15;fontFamily=Comic Sans MS;" parent="Gr0Zq-AI6Quabplr0KPa-210" vertex="1" connectable="0">
          <mxGeometry x="0.0245" y="2" relative="1" as="geometry">
            <mxPoint x="166" y="-65" as="offset" />
          </mxGeometry>
        </mxCell>
        <mxCell id="DW1gCvUn582GKB6UZ9Xo-16" value="" style="edgeStyle=entityRelationEdgeStyle;startArrow=none;endArrow=none;segment=10;curved=1;strokeWidth=3;strokeColor=#660000;rounded=0;fontSize=12;startSize=8;endSize=8;exitX=0.966;exitY=0.371;exitDx=0;exitDy=0;exitPerimeter=0;" parent="Gr0Zq-AI6Quabplr0KPa-179" source="Gr0Zq-AI6Quabplr0KPa-180" edge="1">
          <mxGeometry relative="1" as="geometry">
            <mxPoint x="380.74" y="191" as="sourcePoint" />
            <mxPoint x="472" y="159" as="targetPoint" />
            <Array as="points">
              <mxPoint x="379.74" y="184" />
              <mxPoint x="356.74" y="177" />
              <mxPoint x="410.74" y="146" />
              <mxPoint x="421.74" y="134" />
            </Array>
          </mxGeometry>
        </mxCell>
        <mxCell id="DW1gCvUn582GKB6UZ9Xo-20" value="" style="edgeStyle=entityRelationEdgeStyle;startArrow=none;endArrow=none;segment=10;curved=1;strokeColor=#00FF00;rounded=0;fontSize=12;startSize=8;endSize=8;" parent="Gr0Zq-AI6Quabplr0KPa-179" edge="1">
          <mxGeometry relative="1" as="geometry">
            <mxPoint x="357" y="99" as="sourcePoint" />
            <mxPoint x="443" y="82" as="targetPoint" />
            <Array as="points">
              <mxPoint x="399" y="91" />
            </Array>
          </mxGeometry>
        </mxCell>
        <mxCell id="DW1gCvUn582GKB6UZ9Xo-26" value="" style="edgeStyle=entityRelationEdgeStyle;startArrow=none;endArrow=none;segment=10;curved=1;strokeColor=#00FF00;rounded=0;fontSize=12;startSize=8;endSize=8;" parent="Gr0Zq-AI6Quabplr0KPa-179" edge="1">
          <mxGeometry relative="1" as="geometry">
            <mxPoint x="355" y="98" as="sourcePoint" />
            <mxPoint x="404" y="27" as="targetPoint" />
          </mxGeometry>
        </mxCell>
        <mxCell id="DW1gCvUn582GKB6UZ9Xo-36" value="&lt;font size=&quot;1&quot; color=&quot;#0066cc&quot; style=&quot;&quot;&gt;&lt;b style=&quot;font-size: 14px;&quot;&gt;OPL&lt;/b&gt;&lt;/font&gt;" style="whiteSpace=wrap;html=1;shape=mxgraph.basic.cloud_callout;fontFamily=Comic Sans MS;rotation=15;fontColor=#FF0000;" parent="Gr0Zq-AI6Quabplr0KPa-179" vertex="1">
          <mxGeometry x="396.94" y="9" width="54" height="37" as="geometry" />
        </mxCell>
        <mxCell id="DW1gCvUn582GKB6UZ9Xo-37" value="&lt;font color=&quot;#ff66b3&quot; size=&quot;1&quot; style=&quot;&quot;&gt;&lt;b style=&quot;font-size: 14px;&quot;&gt;Check list&lt;/b&gt;&lt;/font&gt;" style="whiteSpace=wrap;html=1;shape=mxgraph.basic.cloud_callout;fontFamily=Comic Sans MS;rotation=15;fontColor=#FF0000;" parent="Gr0Zq-AI6Quabplr0KPa-179" vertex="1">
          <mxGeometry x="442.48" y="45.56" width="95.25" height="69.74" as="geometry" />
        </mxCell>
        <mxCell id="DW1gCvUn582GKB6UZ9Xo-38" value="&lt;font style=&quot;font-size: 13px;&quot; color=&quot;#33001a&quot;&gt;凡事彻底活动&lt;/font&gt;" style="whiteSpace=wrap;html=1;shape=mxgraph.basic.cloud_callout;fontFamily=Comic Sans MS;rotation=15;fontColor=#FF0000;" parent="Gr0Zq-AI6Quabplr0KPa-179" vertex="1">
          <mxGeometry x="554.89" y="71.27" width="104.68" height="58.87" as="geometry" />
        </mxCell>
        <mxCell id="DW1gCvUn582GKB6UZ9Xo-113" value="&lt;font style=&quot;font-size: 36px;&quot;&gt;期待!!!&lt;/font&gt;" style="whiteSpace=wrap;html=1;shape=mxgraph.basic.cloud_callout;fontFamily=Comic Sans MS;rotation=15;fontColor=#FF0000;fontStyle=3;horizontal=1;verticalAlign=top;labelBorderColor=none;labelBackgroundColor=#CCFFFF;" parent="Gr0Zq-AI6Quabplr0KPa-179" vertex="1">
          <mxGeometry x="562" y="138.81" width="122.29" height="91.19" as="geometry" />
        </mxCell>
        <mxCell id="DW1gCvUn582GKB6UZ9Xo-114" value="" style="verticalLabelPosition=bottom;aspect=fixed;html=1;shape=mxgraph.salesforce.success;rotation=15;" parent="Gr0Zq-AI6Quabplr0KPa-179" vertex="1">
          <mxGeometry x="588" y="187.49" width="33.32" height="49" as="geometry" />
        </mxCell>
        <mxCell id="DW1gCvUn582GKB6UZ9Xo-115" value="" style="verticalLabelPosition=bottom;aspect=fixed;html=1;shape=mxgraph.salesforce.philantrophy;" parent="Gr0Zq-AI6Quabplr0KPa-179" vertex="1">
          <mxGeometry x="465.00000000000006" y="161.94" width="24.07" height="29" as="geometry" />
        </mxCell>
        <mxCell id="DW1gCvUn582GKB6UZ9Xo-118" value="&lt;span style=&quot;font-style: normal; font-size: 13px;&quot;&gt;&lt;font style=&quot;font-size: 13px;&quot; color=&quot;#3399ff&quot;&gt;根据反馈、&lt;/font&gt;&lt;/span&gt;&lt;div style=&quot;font-size: 13px;&quot;&gt;&lt;span style=&quot;font-style: normal;&quot;&gt;&lt;font style=&quot;font-size: 13px;&quot; color=&quot;#3399ff&quot;&gt;改进流程&lt;/font&gt;&lt;/span&gt;&lt;/div&gt;" style="whiteSpace=wrap;html=1;shape=mxgraph.basic.cloud_callout;fontFamily=Comic Sans MS;rotation=5;fontColor=#1C14FF;fontStyle=2" parent="Gr0Zq-AI6Quabplr0KPa-179" vertex="1">
          <mxGeometry x="515" y="367.75" width="113.93" height="69.5" as="geometry" />
        </mxCell>
        <mxCell id="DW1gCvUn582GKB6UZ9Xo-191" value="&lt;font color=&quot;#b266ff&quot; style=&quot;font-size: 13px;&quot;&gt;海报 口号 刊物&lt;/font&gt;" style="ellipse;shape=cloud;whiteSpace=wrap;html=1;labelBackgroundColor=none;rotation=-25;labelBorderColor=none;" parent="Gr0Zq-AI6Quabplr0KPa-179" vertex="1">
          <mxGeometry x="1.1" y="190.94" width="139" height="50.49" as="geometry" />
        </mxCell>
        <mxCell id="DW1gCvUn582GKB6UZ9Xo-335" value="&lt;font color=&quot;#b5739d&quot; style=&quot;font-size: 13px;&quot;&gt;各项理论、&lt;/font&gt;&lt;div&gt;&lt;font color=&quot;#b5739d&quot; style=&quot;font-size: 13px;&quot;&gt;实操教育&lt;/font&gt;&lt;/div&gt;" style="ellipse;shape=cloud;whiteSpace=wrap;html=1;labelBackgroundColor=none;rotation=-80;labelBorderColor=none;horizontal=1;verticalAlign=middle;align=center;fontStyle=0" parent="Gr0Zq-AI6Quabplr0KPa-179" vertex="1">
          <mxGeometry y="81.13" width="124" height="77.87" as="geometry" />
        </mxCell>
        <mxCell id="DW1gCvUn582GKB6UZ9Xo-263" value="&lt;font style=&quot;font-size: 13px;&quot; color=&quot;#33001a&quot;&gt;开展凡事彻底活动&lt;/font&gt;" style="ellipse;shape=cloud;whiteSpace=wrap;html=1;labelBackgroundColor=#CCFF99;rotation=-15;" parent="Gr0Zq-AI6Quabplr0KPa-179" vertex="1">
          <mxGeometry x="14.68" y="291.78" width="124" height="55" as="geometry" />
        </mxCell>
        <mxCell id="DW1gCvUn582GKB6UZ9Xo-338" value="&lt;font color=&quot;#7ea6e0&quot; style=&quot;font-size: 11px;&quot;&gt;凡事彻底”作为绩效评估的一部分&lt;/font&gt;" style="ellipse;shape=cloud;whiteSpace=wrap;html=1;labelBackgroundColor=none;rotation=10;" parent="Gr0Zq-AI6Quabplr0KPa-179" vertex="1">
          <mxGeometry x="78" y="340.51" width="124" height="69.98" as="geometry" />
        </mxCell>
        <mxCell id="DW1gCvUn582GKB6UZ9Xo-413" value="&lt;font style=&quot;font-size: 13px;&quot; color=&quot;#666600&quot;&gt;巡查、确保作业标准&lt;/font&gt;" style="ellipse;shape=cloud;whiteSpace=wrap;html=1;labelBackgroundColor=none;rotation=-15;fontSize=9;" parent="Gr0Zq-AI6Quabplr0KPa-179" vertex="1">
          <mxGeometry x="210" y="389.25" width="170" height="48" as="geometry" />
        </mxCell>
        <mxCell id="GD0dFJLd0CxXKPKDBsXC-1" value="" style="image;aspect=fixed;perimeter=ellipsePerimeter;html=1;align=center;shadow=0;dashed=0;spacingTop=3;image=img/lib/active_directory/writer.svg;rotation=15;" parent="Gr0Zq-AI6Quabplr0KPa-179" vertex="1">
          <mxGeometry x="244" y="136" width="48" height="50" as="geometry" />
        </mxCell>
        <mxCell id="GD0dFJLd0CxXKPKDBsXC-79" value="" style="sketch=0;points=[[0,0,0],[0.25,0,0],[0.5,0,0],[0.75,0,0],[1,0,0],[0,1,0],[0.25,1,0],[0.5,1,0],[0.75,1,0],[1,1,0],[0,0.25,0],[0,0.5,0],[0,0.75,0],[1,0.25,0],[1,0.5,0],[1,0.75,0]];outlineConnect=0;fontColor=#232F3E;fillColor=#DD344C;strokeColor=#ffffff;dashed=0;verticalLabelPosition=bottom;verticalAlign=top;align=center;html=1;fontSize=12;fontStyle=0;aspect=fixed;shape=mxgraph.aws4.resourceIcon;resIcon=mxgraph.aws4.detective;rotation=-30;" parent="Gr0Zq-AI6Quabplr0KPa-179" vertex="1">
          <mxGeometry x="273" y="306.51" width="34" height="34" as="geometry" />
        </mxCell>
        <mxCell id="GD0dFJLd0CxXKPKDBsXC-85" value="" style="edgeStyle=entityRelationEdgeStyle;jumpStyle=arc;html=1;endArrow=classicThin;endFill=1;jettySize=auto;orthogonalLoop=1;strokeColor=none;strokeWidth=2;fontFamily=Comic Sans MS;rounded=0;fontSize=12;startSize=8;endSize=8;curved=1;" parent="Gr0Zq-AI6Quabplr0KPa-179" target="DW1gCvUn582GKB6UZ9Xo-117" edge="1">
          <mxGeometry relative="1" as="geometry">
            <mxPoint x="678" y="337.82" as="sourcePoint" />
            <mxPoint x="641" y="323" as="targetPoint" />
          </mxGeometry>
        </mxCell>
        <mxCell id="DW1gCvUn582GKB6UZ9Xo-117" value="&lt;font color=&quot;#006666&quot; style=&quot;font-size: 13px;&quot;&gt;鼓励发现问题、&lt;/font&gt;&lt;div style=&quot;font-size: 13px;&quot;&gt;&lt;font color=&quot;#006666&quot; style=&quot;font-size: 13px;&quot;&gt;及时反馈&lt;/font&gt;&lt;/div&gt;" style="whiteSpace=wrap;html=1;shape=mxgraph.basic.cloud_callout;fontFamily=Comic Sans MS;rotation=5;fontColor=#1C14FF;fontStyle=2" parent="Gr0Zq-AI6Quabplr0KPa-179" vertex="1">
          <mxGeometry x="530" y="252.02" width="110" height="81.98" as="geometry" />
        </mxCell>
        <mxCell id="GD0dFJLd0CxXKPKDBsXC-99" value="" style="sketch=0;outlineConnect=0;fontColor=#232F3E;gradientColor=none;fillColor=#8C4FFF;strokeColor=none;dashed=0;verticalLabelPosition=bottom;verticalAlign=top;align=center;html=1;fontSize=12;fontStyle=0;aspect=fixed;pointerEvents=1;shape=mxgraph.aws4.datazone_data_projects;rotation=0;" parent="Gr0Zq-AI6Quabplr0KPa-179" vertex="1">
          <mxGeometry x="409.44" y="136" width="29" height="29" as="geometry" />
        </mxCell>
      </root>
    </mxGraphModel>
  </diagram>
</mxfile>
